<svg xmlns="http://www.w3.org/2000/svg" viewBox="0 0 600 340"><rect width="600" height="340" fill="#FBE6EF"/>
<g fill="#F2A9C4"><circle cx="80" cy="64" r="5"/><circle cx="524" cy="84" r="4"/><circle cx="120" cy="286" r="4"/></g>
<g fill="#EFA8C6"><path d="M70 176 l5 11 l11 5 l-11 5 l-5 11 l-5 -11 l-11 -5 l11 -5Z"/><path d="M520 238 l4 9 l9 4 l-9 4 l-4 9 l-4 -9 l-9 -4 l9 -4Z"/></g>
<g><g fill="#F4B9D2"><circle cx="150" cy="120" r="9"/><circle cx="168" cy="132" r="9"/><circle cx="162" cy="152" r="9"/><circle cx="140" cy="150" r="9"/><circle cx="132" cy="130" r="9"/></g><circle cx="150" cy="137" r="6.5" fill="#E27BA0"/></g>
<g><g fill="#F7CBDD"><circle cx="458" cy="208" r="8"/><circle cx="474" cy="219" r="8"/><circle cx="468" cy="237" r="8"/><circle cx="448" cy="235" r="8"/><circle cx="441" cy="217" r="8"/></g><circle cx="458" cy="224" r="6" fill="#EE9CBC"/></g>
<g stroke="#E27BA0" stroke-width="3.6" stroke-linecap="round" stroke-linejoin="round" fill="none">
<path d="M232 168 q-10 -80 68 -84 q78 4 68 84 q6 58 -68 66 q-74 -8 -68 -66Z" fill="#FBD2E3"/>
<ellipse cx="300" cy="180" rx="70" ry="66" fill="#FFF4F8"/>
<path d="M236 156 q64 -32 128 0 l0 -22 q-64 -30 -128 0Z" fill="#F7C6DB"/>
<circle cx="300" cy="106" r="15" fill="#F7C6DB"/>
<path d="M286 208 q14 10 28 0"/></g>
<g stroke="#9CC97E" stroke-width="2.6" fill="#CFE7B8"><circle cx="272" cy="178" r="16"/><circle cx="328" cy="178" r="16"/></g>
<g fill="#E7F2D8"><circle cx="272" cy="178" r="7.5"/><circle cx="328" cy="178" r="7.5"/></g>
<g fill="#F7B8D2"><circle cx="261" cy="202" r="9"/><circle cx="339" cy="202" r="9"/></g></svg>
