<svg xmlns="http://www.w3.org/2000/svg" viewBox="0 0 600 720"><rect width="600" height="720" fill="#FBE6EF"/>
<g fill="#EFA8C6"><path d="M90 150 l6 13 l13 6 l-13 6 l-6 13 l-6 -13 l-13 -6 l13 -6Z"/><path d="M500 120 l5 11 l11 5 l-11 5 l-5 11 l-5 -11 l-11 -5 l11 -5Z"/><path d="M520 520 l5 12 l12 5 l-12 5 l-5 12 l-5 -12 l-12 -5 l12 -5Z"/><path d="M80 540 l4 10 l10 4 l-10 4 l-4 10 l-4 -10 l-10 -4 l10 -4Z"/></g>
<g fill="#F2A9C4"><circle cx="120" cy="300" r="6"/><circle cx="492" cy="320" r="5"/><circle cx="150" cy="640" r="5"/><circle cx="470" cy="650" r="5"/></g>
<g><g fill="#F4B9D2"><circle cx="140" cy="200" r="13"/><circle cx="166" cy="218" r="13"/><circle cx="157" cy="247" r="13"/><circle cx="124" cy="244" r="13"/><circle cx="113" cy="216" r="13"/></g><circle cx="140" cy="225" r="9.5" fill="#E27BA0"/></g>
<g><g fill="#F7CBDD"><circle cx="468" cy="430" r="11"/><circle cx="490" cy="445" r="11"/><circle cx="482" cy="470" r="11"/><circle cx="455" cy="468" r="11"/><circle cx="446" cy="444" r="11"/></g><circle cx="468" cy="450" r="8" fill="#EE9CBC"/></g>
<g stroke="#E27BA0" stroke-width="4.4" stroke-linecap="round" stroke-linejoin="round" fill="none">
<path d="M196 360 q-14 -118 104 -124 q118 6 104 124 q8 86 -104 98 q-112 -12 -104 -98Z" fill="#FBD2E3"/>
<ellipse cx="300" cy="380" rx="104" ry="98" fill="#FFF4F8"/>
<path d="M204 348 q96 -46 192 0 l0 -32 q-96 -44 -192 0Z" fill="#F7C6DB"/>
<circle cx="300" cy="270" r="22" fill="#F7C6DB"/>
<path d="M254 380 q14 11 30 0"/><path d="M316 380 q14 11 30 0"/>
<path d="M256 374 l-6 -8 M270 372 l-2 -9 M284 374 l5 -8"/>
<path d="M316 374 l-6 -8 M330 372 l-2 -9 M344 374 l5 -8"/>
<path d="M280 416 q20 13 40 0"/>
<path d="M300 478 q-26 8 -34 34 q-3 18 14 22 q6 -22 26 -30 q14 -6 18 -20" fill="#FFF4F8"/></g>
<g fill="#F7B8D2"><circle cx="250" cy="404" r="13"/><circle cx="350" cy="404" r="13"/></g></svg>
